<svg width="16" height="24" viewBox="0 0 16 24" fill="none" xmlns="http://www.w3.org/2000/svg">
<path d="M4.12926 0.000108747C4.06328 0.00199872 3.99896 0.0262241 3.94319 0.0701887C3.88741 0.114153 3.8423 0.1762 3.81266 0.249678C3.78303 0.323156 3.77001 0.405296 3.77498 0.487294C3.77996 0.569293 3.80275 0.648058 3.84091 0.71515L4.91619 2.65142C3.88376 3.63726 3.16064 5.10177 2.96733 6.78238H13.0327C12.8394 5.10177 12.1162 3.63726 11.0838 2.65142L12.1591 0.71515C12.1978 0.647078 12.2207 0.567018 12.2252 0.483791C12.2297 0.400563 12.2157 0.317398 12.1847 0.243457C12.1537 0.169517 12.1069 0.107671 12.0495 0.0647336C11.9921 0.021796 11.9263 -0.000566837 11.8594 0.000108747C11.8004 0.000785866 11.7424 0.0193477 11.6904 0.0541918C11.6384 0.089036 11.594 0.139116 11.5611 0.200108L10.4773 2.15408C9.74418 1.64222 8.90094 1.34524 8 1.34524C7.09906 1.34524 6.25582 1.64222 5.52273 2.15408L4.43892 0.200108C4.40489 0.137111 4.3587 0.0857817 4.30459 0.050835C4.25048 0.0158883 4.19019 -0.00155467 4.12926 0.000108747ZM5.81818 3.15762C6.21964 3.15762 6.54545 3.56359 6.54545 4.06381C6.54545 4.56402 6.21964 4.97 5.81818 4.97C5.41673 4.97 5.09091 4.56402 5.09091 4.06381C5.09091 3.56359 5.41673 3.15762 5.81818 3.15762ZM10.1818 3.15762C10.5833 3.15762 10.9091 3.56359 10.9091 4.06381C10.9091 4.56402 10.5833 4.97 10.1818 4.97C9.78036 4.97 9.45455 4.56402 9.45455 4.06381C9.45455 3.56359 9.78036 3.15762 10.1818 3.15762ZM0.727273 8.59476C0.325818 8.59476 0 9.00073 0 9.50095V16.7505C0 17.2507 0.325818 17.6567 0.727273 17.6567C1.12873 17.6567 1.45455 17.2507 1.45455 16.7505V9.50095C1.45455 9.00073 1.12873 8.59476 0.727273 8.59476ZM2.90909 8.59476V17.6567C2.90909 18.658 3.56 19.469 4.36364 19.469V22.6407C4.36364 23.391 4.85236 24 5.45455 24C6.05673 24 6.54545 23.391 6.54545 22.6407V19.469H9.45455V22.6407C9.45455 23.391 9.94327 24 10.5455 24C11.1476 24 11.6364 23.391 11.6364 22.6407V19.469C12.44 19.469 13.0909 18.658 13.0909 17.6567V8.59476H2.90909ZM15.2727 8.59476C14.8713 8.59476 14.5455 9.00073 14.5455 9.50095V16.7505C14.5455 17.2507 14.8713 17.6567 15.2727 17.6567C15.6742 17.6567 16 17.2507 16 16.7505V9.50095C16 9.00073 15.6742 8.59476 15.2727 8.59476Z" fill="#8AA65B"/>
</svg>
