<svg width="30" height="30" viewBox="0 0 30 30" fill="none" xmlns="http://www.w3.org/2000/svg">
<path d="M24.3744 8.52717C24.2653 8.5968 21.6672 10.0664 21.6672 13.3248C21.7897 17.0408 24.9459 18.3439 25 18.3439C24.9459 18.4136 24.5235 20.1192 23.2724 21.9071C22.2795 23.4472 21.1775 25 19.504 25C17.9121 25 17.3407 23.9736 15.504 23.9736C13.5315 23.9736 12.9734 25 11.4631 25C9.78967 25 8.60599 23.364 7.55896 21.8384C6.19871 19.8416 5.04254 16.708 5.00172 13.6992C4.97422 12.1048 5.27413 10.5375 6.03544 9.20634C7.10998 7.34789 9.02835 6.08631 11.1233 6.04471C12.7285 5.98955 14.157 7.16792 15.1366 7.16792C16.0754 7.16792 17.8305 6.04471 19.8163 6.04471C20.6735 6.04562 22.9592 6.30878 24.3744 8.52717ZM15.0009 5.72638C14.7151 4.27037 15.504 2.81435 16.2387 1.88558C17.1774 0.762372 18.6601 0 19.9388 0C20.0204 1.45601 19.5031 2.88399 18.5785 3.924C17.7489 5.04721 16.3203 5.89278 15.0009 5.72638Z" fill="#8AA65B"/>
</svg>
