<svg width="1080" height="1080" viewBox="0 0 1080 1080" fill="none" xmlns="http://www.w3.org/2000/svg">
<rect width="1080" height="1080" fill="white"/>
<path d="M448.792 422.875H617.25C627.56 422.875 637.448 426.971 644.739 434.261C652.029 441.552 656.125 451.44 656.125 461.75V630.208C656.125 640.519 652.029 650.407 644.739 657.697C637.448 664.988 627.56 669.083 617.25 669.083H448.792C438.481 669.083 428.593 664.988 421.303 657.697C414.012 650.407 409.917 640.519 409.917 630.208V461.75C409.917 451.44 414.012 441.552 421.303 434.261C428.593 426.971 438.481 422.875 448.792 422.875ZM448.792 435.833C441.918 435.833 435.326 438.564 430.466 443.424C425.606 448.284 422.875 454.876 422.875 461.75V611.937L478.466 556.216L510.862 588.612L575.654 523.82L643.167 591.333V461.75C643.167 454.876 640.436 448.284 635.576 443.424C630.716 438.564 624.124 435.833 617.25 435.833H448.792ZM510.862 607.013L478.466 574.617L422.875 630.208C422.875 637.082 425.606 643.674 430.466 648.534C435.326 653.394 441.918 656.125 448.792 656.125H617.25C624.124 656.125 630.716 653.394 635.576 648.534C640.436 643.674 643.167 637.082 643.167 630.208V609.605L575.654 542.221L510.862 607.013ZM481.188 461.75C489.779 461.75 498.019 465.163 504.095 471.239C510.17 477.314 513.583 485.554 513.583 494.146C513.583 502.738 510.17 510.978 504.095 517.053C498.019 523.129 489.779 526.542 481.188 526.542C472.596 526.542 464.356 523.129 458.28 517.053C452.205 510.978 448.792 502.738 448.792 494.146C448.792 485.554 452.205 477.314 458.28 471.239C464.356 465.163 472.596 461.75 481.188 461.75ZM481.188 474.708C476.032 474.708 471.088 476.756 467.443 480.401C463.798 484.047 461.75 488.991 461.75 494.146C461.75 499.301 463.798 504.245 467.443 507.89C471.088 511.535 476.032 513.583 481.188 513.583C486.343 513.583 491.287 511.535 494.932 507.89C498.577 504.245 500.625 499.301 500.625 494.146C500.625 488.991 498.577 484.047 494.932 480.401C491.287 476.756 486.343 474.708 481.188 474.708Z" fill="#C4C4C4"/>
</svg>
