<svg width="30" height="30" viewBox="0 0 30 30" fill="none" xmlns="http://www.w3.org/2000/svg">
<path d="M7.62305 3.21094L18 13.5859L20.6777 10.9082C17.0187 8.6882 12.1181 5.71009 9.91406 4.37109L8.4375 3.47656C8.1765 3.31756 7.89705 3.23194 7.62305 3.21094ZM6.03906 4.45312C6.01806 4.56712 6 4.68169 6 4.80469V25.3086C6 25.3946 6.0173 25.4746 6.0293 25.5566L16.5859 15L6.03906 4.45312ZM22.4375 11.9766L19.4141 15L22.3848 17.9707C23.9588 17.0167 25.0489 16.3542 25.1699 16.2812C25.7049 15.9543 26.007 15.4609 25.998 14.9219C25.99 14.3929 25.6878 13.9199 25.1738 13.6289C25.0588 13.5629 23.9835 12.9136 22.4375 11.9766ZM18 16.4141L7.6543 26.7598C7.8553 26.7248 8.05605 26.6648 8.24805 26.5488C8.51405 26.3868 15.7 22.0271 20.625 19.0391L18 16.4141Z" fill="#8AA65B"/>
</svg>
