<svg width="39" height="34" viewBox="0 0 39 34" fill="none" xmlns="http://www.w3.org/2000/svg">
<path d="M4.69231 24.5C6.17846 24.5 7.38462 22.484 7.38462 20C7.38462 17.516 6.17846 15.5 4.69231 15.5C3.20615 15.5 2 17.516 2 20C2 22.484 3.20615 24.5 4.69231 24.5ZM12.7692 11C14.2554 11 15.4615 8.984 15.4615 6.5C15.4615 4.016 14.2554 2 12.7692 2C11.2831 2 10.0769 4.016 10.0769 6.5C10.0769 8.984 11.2831 11 12.7692 11ZM26.2308 11C27.7169 11 28.9231 8.984 28.9231 6.5C28.9231 4.016 27.7169 2 26.2308 2C24.7446 2 23.5385 4.016 23.5385 6.5C23.5385 8.984 24.7446 11 26.2308 11ZM34.3077 24.5C35.7938 24.5 37 22.484 37 20C37 17.516 35.7938 15.5 34.3077 15.5C32.8215 15.5 31.6154 17.516 31.6154 20C31.6154 22.484 32.8215 24.5 34.3077 24.5ZM27.5769 26C27.5769 30.14 23.2154 32 19.5 32C15.7846 32 11.4231 30.14 11.4231 26C11.4231 21.86 14.1154 15.5 19.5 15.5C24.8846 15.5 27.5769 21.86 27.5769 26Z" stroke="black" stroke-width="3" stroke-linecap="round" stroke-linejoin="round"/>
</svg>
